<svg width="104" height="123" viewBox="0 0 104 123" fill="none" xmlns="http://www.w3.org/2000/svg">
<path d="M71 110.5L33 114.5V97.5L20 86L27.5 64.5L35 46.5L38 35L36.5 29.5V18L45 13.5L60.5 15L77 62.5L80.5 88L74 92L71 110.5Z" fill="#F9FAFB"/>
<path fill-rule="evenodd" clip-rule="evenodd" d="M101.395 101.695C99.6004 100.217 97.7664 98.7738 96.0874 97.1698C94.2174 95.3848 93.0424 93.2258 93.2984 90.4918C93.4454 88.9188 93.0824 87.5658 91.1854 87.0398C91.6314 85.8858 92.0494 85.1118 92.2184 84.2868C92.4064 83.3668 92.3964 82.3998 92.4224 81.4528C92.6864 71.4928 89.0884 62.7618 83.7594 54.6178C81.3054 50.8698 78.7424 47.1888 76.1264 43.5518C72.0344 37.8638 70.5674 31.4738 70.4934 24.5708C70.4514 21.3842 70.0893 18.2099 69.4124 15.0958C68.0994 9.05579 64.8634 4.33279 58.9944 1.79979C54.4974 -0.142214 49.8424 -0.527214 45.0934 0.715786C38.1924 2.52079 34.0194 7.64979 34.0974 14.8038C34.1714 21.6888 34.5144 28.5828 35.0194 35.4518C35.3074 39.3448 34.7074 42.7038 32.1244 45.7918C29.6404 48.7608 27.4184 51.9638 25.2664 55.1888C24.0374 57.0328 22.9494 59.0418 22.1894 61.1198C20.1194 66.7828 18.2164 72.4928 14.9134 77.6198C13.6894 79.5198 13.5504 81.6458 14.4194 83.8188C14.6444 84.3818 14.7824 85.2478 14.5084 85.7008C12.1544 89.6078 9.49744 93.0458 4.44244 93.7958C0.466444 94.3868 0.270444 95.1098 0.391444 99.2088C0.491444 102.546 0.452443 105.914 0.111443 109.23C-0.251557 112.785 0.119443 113.751 3.55344 114.603C11.4774 116.571 19.4664 118.25 27.0454 121.457C30.2724 122.822 33.5104 122.348 36.1094 119.694C38.8224 116.923 42.2504 115.839 45.9534 115.835C52.2384 115.83 58.5254 116.133 64.8134 116.204C66.5154 116.224 67.4924 116.857 68.1774 118.403C69.0174 120.296 70.4374 121.687 72.6224 121.929C76.8154 122.391 80.6354 121.769 83.8124 118.57C87.7304 114.622 92.2484 111.504 97.4274 109.343C98.9094 108.724 100.305 107.751 101.53 106.695C103.761 104.773 103.643 103.549 101.395 101.695ZM49.9984 21.2198C50.7564 18.6188 52.5354 16.9308 55.2414 16.4188C57.5174 15.9888 59.4444 17.1068 60.8804 19.6648C62.4264 22.4228 62.9344 25.3048 61.6144 28.3228C60.5314 30.7968 60.0234 31.0298 57.4914 30.1908C57.0174 30.0338 56.5544 29.8478 55.7144 29.5388C56.4224 28.9448 56.8684 28.5038 57.3784 28.1568C58.5124 27.3848 58.8304 26.2988 58.7244 25.0088C58.5854 23.3148 57.2534 21.8148 55.8874 21.8338C54.6624 21.8508 53.6254 23.0008 53.4874 24.7488C53.4014 25.8378 53.5824 26.9478 53.6604 28.3378C50.2144 27.3148 48.9494 24.8128 49.9984 21.2198ZM37.2484 18.9688C38.5224 17.0408 40.4454 16.6548 42.3494 17.9448C44.3784 19.3208 45.8964 23.2008 45.1124 25.5208C44.8274 26.3648 43.9854 27.0208 43.3964 27.7618L42.7924 27.3878C42.5624 26.1348 42.5164 24.8028 42.0354 23.6548C41.7314 22.9268 40.7784 22.4708 40.1164 21.8928C39.4944 22.6318 38.4234 23.3358 38.3594 24.1208C38.2714 25.2048 38.8364 26.4008 39.3284 27.4518C39.6394 28.1128 40.3294 28.5968 41.0414 29.3678L39.1194 30.8778C36.1014 28.1778 35.2044 22.0578 37.2484 18.9688ZM74.9124 83.1748C74.7094 85.7788 74.4124 85.8878 71.7944 86.2728C69.9354 86.5448 69.4354 87.0288 69.3414 89.2368C69.2389 91.82 69.2349 94.4062 69.3294 96.9898C69.3904 98.7598 68.7924 100.148 67.5744 101.383C60.8104 108.239 52.7294 111.488 43.0624 110.309C38.8924 109.8 36.1664 107.262 33.9654 103.67C34.9454 103.307 35.6704 103.063 36.3774 102.776C39.4994 101.506 40.0834 98.8208 37.5904 96.4988C35.7064 94.7418 33.6044 93.2158 31.5834 91.6068C29.6294 90.0518 27.6494 88.5288 25.6924 86.9778C24.0244 85.6548 23.3874 83.9498 23.3474 81.7898C23.2534 76.6078 24.3194 71.7598 26.4854 67.0428C28.4174 62.8338 29.9144 58.4258 31.7244 54.1578C32.6594 51.9558 33.6304 49.7028 35.0024 47.7698C36.3214 45.9158 37.1364 44.1008 36.9904 41.8298C36.9064 40.5538 36.9744 39.2678 36.9744 37.9868L37.6814 37.6348C38.8224 38.6198 39.9834 39.5838 41.1044 40.5938C45.1494 44.2398 48.9964 44.4068 53.4234 41.2638C55.3114 39.9228 57.3534 38.7938 59.3504 37.6118C59.8474 37.3178 60.4424 37.1888 61.2844 36.8738C63.4354 41.9398 65.5464 46.9068 67.6594 51.8738C68.7314 54.3978 69.5914 57.0408 70.9234 59.4208C73.5944 64.1958 75.0154 69.2338 74.9934 74.6928C74.9814 77.5228 75.1304 80.3628 74.9124 83.1748Z" fill="#374151"/>
</svg>
