<svg width="95" height="27" viewBox="0 0 95 27" fill="none" xmlns="http://www.w3.org/2000/svg">
<path fill-rule="evenodd" clip-rule="evenodd" d="M9.69588 11.9574C9.53477 12.2075 9.44087 12.5069 9.44087 12.8288C9.44087 13.1869 9.55697 13.5171 9.75274 13.7827L11.484 16.5613L10.1561 19.7899C9.93335 20.3267 10.1683 20.9688 10.6813 21.2243L11.856 21.8094H13.581C13.581 21.4221 13.2746 21.0705 12.899 21.0242L12.2366 20.9346L11.3765 20.1694L13.405 16.6589C13.5022 16.4909 13.5387 16.205 13.4847 16.0133L12.899 13.7188C13.581 13.7188 14.3032 13.9802 15.106 14.6805C15.3715 14.9122 15.6479 15.0781 15.9241 15.1939L17.6129 13.3907C17.7205 13.5546 17.7137 13.8765 17.5726 14.0711L16.451 15.619C16.3798 15.7172 16.2964 15.8905 16.2643 16.007L15.3548 19.2946L13.7535 21.2906C13.944 21.5827 14.3987 21.6031 14.7098 21.3721L15.716 20.6174C15.8705 20.5023 16.0726 20.2737 16.1677 20.1061L17.828 17.108L20.8386 15.1401C21.3763 14.8121 21.4679 14.1851 21.4838 13.6094C21.8752 13.8887 22.3823 14.0629 22.8959 14.0629H23.2043C23.4971 14.297 23.8789 14.3747 24.2795 14.3747C25.2323 14.3747 26 13.6196 26 12.6254L25.5695 12.0358L25.105 12.5103C24.8377 12.7836 24.4052 12.7847 24.1363 12.5098L23.7256 12.09C23.4579 11.8164 23.4812 11.3983 23.7773 11.1561L23.8352 11.1088C23.9834 10.9877 24.3046 10.8896 24.4945 10.8761H25.5695V10.7536C25.5695 10.6369 25.5068 10.4638 25.4295 10.3733L24.9247 9.78273H24.602C24.172 9.34544 23.5539 9.1267 22.8958 9.1267C22.2155 9.1267 21.5914 9.45463 21.1619 9.87699C21.1619 9.87699 20.4809 10.537 19.9633 10.537C19.446 10.537 19.2499 10.4226 19.1009 10.3607C16.4838 9.27298 13.3234 9.63523 11.3422 10.6918C11.3141 10.7019 11.2867 10.7148 11.2603 10.7311C10.877 10.9679 10.4375 11.0946 9.97862 11.0946C8.61281 11.0946 7.50561 9.96881 7.50561 8.58004C7.50561 7.19128 8.61281 6.06547 9.97862 6.06547C10.7843 6.06547 11.397 6.21845 12.7113 6.67375C12.8091 6.70761 12.8546 6.72332 12.9072 6.74147C14.1757 7.17892 14.8981 7.3476 15.7914 7.3275C16.9508 7.30126 18.1068 6.88532 19.3656 5.98586C19.5599 5.84706 19.6069 5.57434 19.4702 5.37664C19.3337 5.17897 19.0655 5.13138 18.8711 5.27018C17.7466 6.0737 16.754 6.43079 15.7723 6.45304C15.007 6.47028 14.3627 6.31973 13.1835 5.91325C13.1313 5.89525 13.0863 5.87969 12.9887 5.84583C11.5877 5.36063 10.908 5.19073 9.97859 5.19073C8.13767 5.19073 6.6454 6.70823 6.6454 8.58009C6.6454 10.3551 7.98726 11.8114 9.69588 11.9574ZM19.7737 16.5248C19.7737 16.8771 19.9785 17.1079 20.0863 17.281L22.5178 21.2127C22.72 21.5397 23.1961 21.8094 23.5778 21.8094H26C26 21.4471 25.7145 21.1006 25.366 21.0362L23.6343 20.716L21.9139 16.6707L22.1725 15.0753L19.8325 16.0966C19.7962 16.342 19.7737 16.5029 19.7737 16.5248ZM6.00352 17.7578L6.28359 20.7524C6.66566 20.7524 6.99464 20.44 7.01864 20.0485L7.1829 17.8914L11.0538 16.5612L9.7636 15.0306L6.55764 16.7377C6.21532 16.9121 5.96723 17.3687 6.00352 17.7578ZM23.3597 10.5778C22.9545 10.1656 22.2969 10.1662 21.891 10.579C21.4851 10.9917 21.4845 11.6604 21.8898 12.0724L23.3597 10.5778ZM25.032 11.9691C25.2102 11.9691 25.3547 11.8223 25.3547 11.6411C25.3547 11.46 25.2102 11.3131 25.032 11.3131C24.854 11.3131 24.7095 11.46 24.7095 11.6411C24.7095 11.8223 24.854 11.9691 25.032 11.9691Z" fill="#A3A5A9"/>
<path d="M30.8444 14.5298V13.9574C31.3583 13.9574 31.7169 13.8497 31.92 13.6342C32.1262 13.4188 32.2293 13.0587 32.2293 12.554V11.0767C32.2293 10.652 32.2693 10.2842 32.3493 9.97337C32.4324 9.66252 32.5663 9.40554 32.751 9.20241C32.9356 8.99929 33.1818 8.84848 33.4896 8.75C33.7974 8.65151 34.1775 8.60227 34.6299 8.60227V9.5071C34.2729 9.5071 33.9913 9.5625 33.7851 9.67329C33.5819 9.78409 33.4373 9.95644 33.3511 10.1903C33.268 10.4212 33.2265 10.7166 33.2265 11.0767V12.9233C33.2265 13.1634 33.1942 13.3819 33.1295 13.5788C33.068 13.7758 32.9526 13.9451 32.7833 14.0866C32.614 14.2282 32.3724 14.3375 32.0585 14.4144C31.7477 14.4914 31.343 14.5298 30.8444 14.5298ZM34.6299 20.4205C34.1775 20.4205 33.7974 20.3712 33.4896 20.2727C33.1818 20.1742 32.9356 20.0234 32.751 19.8203C32.5663 19.6172 32.4324 19.3602 32.3493 19.0494C32.2693 18.7385 32.2293 18.3707 32.2293 17.946V16.4688C32.2293 15.964 32.1262 15.6039 31.92 15.3885C31.7169 15.1731 31.3583 15.0653 30.8444 15.0653V14.4929C31.343 14.4929 31.7477 14.5314 32.0585 14.6083C32.3724 14.6853 32.614 14.7945 32.7833 14.9361C32.9526 15.0777 33.068 15.2469 33.1295 15.4439C33.1942 15.6409 33.2265 15.8594 33.2265 16.0994V17.946C33.2265 18.3061 33.268 18.6016 33.3511 18.8324C33.4373 19.0632 33.5819 19.234 33.7851 19.3448C33.9913 19.4587 34.2729 19.5156 34.6299 19.5156V20.4205ZM30.8444 15.0653V13.9574H31.9339V15.0653H30.8444ZM40.5217 18.5739C40.2939 18.5739 40.0985 18.4923 39.9354 18.3292C39.7723 18.1661 39.6907 17.9706 39.6907 17.7429C39.6907 17.5152 39.7723 17.3197 39.9354 17.1566C40.0985 16.9935 40.2939 16.9119 40.5217 16.9119C40.7494 16.9119 40.9448 16.9935 41.108 17.1566C41.2711 17.3197 41.3526 17.5152 41.3526 17.7429C41.3526 17.8937 41.3142 18.0322 41.2372 18.1584C41.1634 18.2846 41.0633 18.3861 40.9371 18.4631C40.814 18.5369 40.6755 18.5739 40.5217 18.5739ZM44.1017 18.5739C43.874 18.5739 43.6786 18.4923 43.5154 18.3292C43.3523 18.1661 43.2708 17.9706 43.2708 17.7429C43.2708 17.5152 43.3523 17.3197 43.5154 17.1566C43.6786 16.9935 43.874 16.9119 44.1017 16.9119C44.3295 16.9119 44.5249 16.9935 44.688 17.1566C44.8511 17.3197 44.9327 17.5152 44.9327 17.7429C44.9327 17.8937 44.8942 18.0322 44.8173 18.1584C44.7434 18.2846 44.6434 18.3861 44.5172 18.4631C44.3941 18.5369 44.2556 18.5739 44.1017 18.5739ZM47.6818 18.5739C47.4541 18.5739 47.2586 18.4923 47.0955 18.3292C46.9324 18.1661 46.8509 17.9706 46.8509 17.7429C46.8509 17.5152 46.9324 17.3197 47.0955 17.1566C47.2586 16.9935 47.4541 16.9119 47.6818 16.9119C47.9096 16.9119 48.105 16.9935 48.2681 17.1566C48.4312 17.3197 48.5128 17.5152 48.5128 17.7429C48.5128 17.8937 48.4743 18.0322 48.3974 18.1584C48.3235 18.2846 48.2235 18.3861 48.0973 18.4631C47.9742 18.5369 47.8357 18.5739 47.6818 18.5739ZM50.6156 18.5V9.04545H53.8102C54.5488 9.04545 55.1551 9.17164 55.6291 9.42401C56.103 9.67329 56.4539 10.0165 56.6816 10.4535C56.9094 10.8905 57.0233 11.3875 57.0233 11.9446C57.0233 12.5017 56.9094 12.9956 56.6816 13.4265C56.4539 13.8574 56.1046 14.1959 55.6337 14.4421C55.1628 14.6853 54.5611 14.8068 53.8287 14.8068H51.2434V13.7727H53.7917C54.2965 13.7727 54.7027 13.6989 55.0105 13.5511C55.3213 13.4034 55.546 13.1941 55.6845 12.9233C55.8261 12.6494 55.8968 12.3232 55.8968 11.9446C55.8968 11.5661 55.8261 11.2352 55.6845 10.9521C55.5429 10.6689 55.3167 10.4504 55.0059 10.2965C54.695 10.1396 54.2842 10.0611 53.7733 10.0611H51.7605V18.5H50.6156ZM55.0659 14.2528L57.3926 18.5H56.063L53.7733 14.2528H55.0659ZM63.252 15.6009V11.4091H64.3415V18.5H63.252V17.2997H63.1782C63.012 17.6598 62.7535 17.966 62.4026 18.2184C62.0518 18.4677 61.6086 18.5923 61.0731 18.5923C60.6299 18.5923 60.2359 18.4954 59.8912 18.3015C59.5465 18.1045 59.2757 17.8091 59.0787 17.4151C58.8818 17.0181 58.7833 16.518 58.7833 15.9148V11.4091H59.8728V15.8409C59.8728 16.358 60.0174 16.7704 60.3067 17.0781C60.5991 17.3859 60.9715 17.5398 61.4239 17.5398C61.6948 17.5398 61.9702 17.4705 62.2503 17.332C62.5334 17.1935 62.7704 16.9812 62.9612 16.695C63.1551 16.4087 63.252 16.044 63.252 15.6009ZM68.4237 18.6662C67.9743 18.6662 67.5665 18.5816 67.2003 18.4123C66.834 18.2399 66.5432 17.9922 66.3278 17.669C66.1123 17.3428 66.0046 16.9489 66.0046 16.4872C66.0046 16.081 66.0846 15.7517 66.2447 15.4993C66.4047 15.2438 66.6186 15.0438 66.8864 14.8991C67.1541 14.7545 67.4496 14.6468 67.7727 14.576C68.099 14.5021 68.4267 14.4437 68.756 14.4006C69.1869 14.3452 69.5362 14.3036 69.804 14.2759C70.0748 14.2451 70.2718 14.1944 70.3949 14.1236C70.5211 14.0528 70.5842 13.9297 70.5842 13.7543V13.7173C70.5842 13.2618 70.4595 12.9079 70.2102 12.6555C69.964 12.4032 69.5901 12.277 69.0884 12.277C68.5683 12.277 68.1605 12.3909 67.8651 12.6186C67.5696 12.8464 67.3619 13.0895 67.2418 13.348L66.2077 12.9787C66.3924 12.5478 66.6386 12.2124 66.9464 11.9723C67.2572 11.7292 67.5958 11.5599 67.962 11.4645C68.3313 11.366 68.6945 11.3168 69.0515 11.3168C69.2792 11.3168 69.5408 11.3445 69.8363 11.3999C70.1348 11.4522 70.4226 11.5614 70.6996 11.7276C70.9796 11.8938 71.212 12.1446 71.3967 12.4801C71.5813 12.8156 71.6737 13.2649 71.6737 13.8281V18.5H70.5842V17.5398H70.5288C70.4549 17.6937 70.3318 17.8583 70.1594 18.0337C69.9871 18.2092 69.7578 18.3584 69.4716 18.4815C69.1854 18.6046 68.8361 18.6662 68.4237 18.6662ZM68.5898 17.6875C69.0207 17.6875 69.3839 17.6029 69.6793 17.4336C69.9779 17.2643 70.2025 17.0458 70.3533 16.7781C70.5072 16.5103 70.5842 16.2287 70.5842 15.9332V14.9361C70.538 14.9915 70.4364 15.0423 70.2795 15.0884C70.1256 15.1315 69.9471 15.17 69.744 15.2038C69.5439 15.2346 69.3485 15.2623 69.1577 15.2869C68.9699 15.3085 68.8176 15.3269 68.7006 15.3423C68.4175 15.3793 68.1528 15.4393 67.9066 15.5224C67.6635 15.6024 67.4665 15.724 67.3157 15.8871C67.168 16.0471 67.0941 16.2656 67.0941 16.5426C67.0941 16.9212 67.2341 17.2074 67.5142 17.4013C67.7973 17.5921 68.1559 17.6875 68.5898 17.6875ZM74.7517 14.2344V18.5H73.6622V11.4091H74.7148V12.517H74.8071C74.9733 12.157 75.2256 11.8677 75.5642 11.6491C75.9027 11.4276 76.3398 11.3168 76.8753 11.3168C77.3554 11.3168 77.7755 11.4152 78.1356 11.6122C78.4957 11.8061 78.7757 12.1016 78.9758 12.4986C79.1758 12.8925 79.2758 13.3911 79.2758 13.9943V18.5H78.1863V14.0682C78.1863 13.5111 78.0417 13.0772 77.7524 12.7663C77.4631 12.4524 77.0661 12.2955 76.5613 12.2955C76.2136 12.2955 75.9027 12.3709 75.6288 12.5217C75.358 12.6725 75.1441 12.8925 74.9871 13.1818C74.8302 13.4711 74.7517 13.822 74.7517 14.2344ZM88.1545 14.4929V15.0653C87.6405 15.0653 87.2804 15.1731 87.0742 15.3885C86.8711 15.6039 86.7695 15.964 86.7695 16.4688V17.946C86.7695 18.3707 86.728 18.7385 86.6449 19.0494C86.5649 19.3602 86.4325 19.6172 86.2479 19.8203C86.0632 20.0234 85.817 20.1742 85.5092 20.2727C85.2015 20.3712 84.8214 20.4205 84.369 20.4205V19.5156C84.726 19.5156 85.006 19.4587 85.2092 19.3448C85.4154 19.234 85.56 19.0632 85.6431 18.8324C85.7293 18.6016 85.7724 18.3061 85.7724 17.946V16.0994C85.7724 15.8594 85.8031 15.6409 85.8647 15.4439C85.9293 15.2469 86.0463 15.0777 86.2156 14.9361C86.3848 14.7945 86.6249 14.6853 86.9357 14.6083C87.2496 14.5314 87.6559 14.4929 88.1545 14.4929ZM84.369 8.60227C84.8214 8.60227 85.2015 8.65151 85.5092 8.75C85.817 8.84848 86.0632 8.99929 86.2479 9.20241C86.4325 9.40554 86.5649 9.66252 86.6449 9.97337C86.728 10.2842 86.7695 10.652 86.7695 11.0767V12.554C86.7695 13.0587 86.8711 13.4188 87.0742 13.6342C87.2804 13.8497 87.6405 13.9574 88.1545 13.9574V14.5298C87.6559 14.5298 87.2496 14.4914 86.9357 14.4144C86.6249 14.3375 86.3848 14.2282 86.2156 14.0866C86.0463 13.9451 85.9293 13.7758 85.8647 13.5788C85.8031 13.3819 85.7724 13.1634 85.7724 12.9233V11.0767C85.7724 10.7166 85.7293 10.4212 85.6431 10.1903C85.56 9.95644 85.4154 9.78409 85.2092 9.67329C85.006 9.5625 84.726 9.5071 84.369 9.5071V8.60227ZM88.1545 13.9574V15.0653H87.065V13.9574H88.1545Z" fill="#A3A5A9"/>
</svg>
