<svg width="66" height="70" viewBox="0 0 66 70" fill="none" xmlns="http://www.w3.org/2000/svg">
<rect width="66" height="69.5468" fill="#171810"/>
<path fill-rule="evenodd" clip-rule="evenodd" d="M17.2397 30.9168C16.8369 31.5422 16.6022 32.2907 16.6022 33.0953C16.6022 33.9906 16.8924 34.8162 17.3818 35.4801L21.7099 42.4266L18.3903 50.4981C17.8334 51.84 18.4207 53.4453 19.7032 54.0841L22.64 55.5468H26.9524C26.9524 54.5786 26.1866 53.6996 25.2475 53.5838L23.5915 53.3599L21.4411 51.4468L26.5125 42.6707C26.7555 42.2505 26.8467 41.5359 26.7116 41.0565L25.2476 35.3203C26.9524 35.3203 28.7581 35.9739 30.7649 37.7245C31.4287 38.3038 32.1198 38.7187 32.8103 39.008L37.0323 34.5C37.3012 34.9099 37.2843 35.7145 36.9314 36.2011L34.1274 40.0708C33.9496 40.3164 33.7411 40.7495 33.6609 41.0409L31.3871 49.2599L27.3838 54.2499C27.86 54.9801 28.9967 55.0312 29.7745 54.4535L32.2901 52.5667C32.6764 52.2792 33.1815 51.7076 33.4193 51.2885L37.57 43.7932L45.0966 38.8734C46.4407 38.0536 46.6698 36.486 46.7096 35.0469C47.688 35.7451 48.9556 36.1805 50.2397 36.1805H51.0107C51.7428 36.7659 52.6972 36.96 53.6989 36.96C56.0807 36.96 58 35.0724 58 32.5869L56.9237 31.1127L55.7626 32.299C55.0943 32.9823 54.0131 32.985 53.3407 32.2978L52.3139 31.2484C51.6449 30.5643 51.703 29.5191 52.4433 28.9136L52.588 28.7954C52.9586 28.4926 53.7615 28.2474 54.2363 28.2135H56.9236V27.9073C56.9236 27.6156 56.7669 27.1828 56.5738 26.9566L55.3118 25.4801H54.5051C53.4299 24.3869 51.8848 23.8401 50.2396 23.8401C48.5389 23.8401 46.9784 24.6599 45.9048 25.7158C45.9048 25.7158 44.2022 27.3658 42.9084 27.3658C41.6149 27.3658 41.1248 27.0798 40.7524 26.9249C34.2094 24.2058 26.3084 25.1114 21.3555 27.7528C21.2854 27.778 21.2167 27.8104 21.1507 27.8512C20.1925 28.443 19.0937 28.7599 17.9466 28.7599C14.532 28.7599 11.764 25.9453 11.764 22.4734C11.764 19.0015 14.532 16.187 17.9466 16.187C19.9607 16.187 21.4924 16.5694 24.7783 17.7077C25.0228 17.7923 25.1364 17.8316 25.2681 17.877C28.4392 18.9706 30.2453 19.3923 32.4785 19.3421C35.377 19.2765 38.267 18.2366 41.4141 15.988C41.8998 15.641 42.0171 14.9592 41.6755 14.4649C41.3342 13.9707 40.6637 13.8518 40.1776 14.1988C37.3665 16.2076 34.885 17.1003 32.4309 17.1559C30.5175 17.199 28.9068 16.8226 25.9588 15.8064C25.8283 15.7614 25.7158 15.7226 25.4716 15.6379C21.9694 14.4249 20.2701 14.0001 17.9465 14.0001C13.3442 14.0001 9.61351 17.7939 9.61351 22.4735C9.61351 26.911 12.9681 30.5519 17.2397 30.9168ZM42.4343 42.3353C42.4343 43.2161 42.9462 43.7931 43.2159 44.2258L49.2945 54.0551C49.8001 54.8726 50.9904 55.5468 51.9445 55.5468H57.9999C57.9999 54.6411 57.2862 53.7748 56.415 53.6138L52.0858 52.8134L47.7847 42.7001L48.4312 38.7115L42.5812 41.2648C42.4905 41.8784 42.4343 42.2807 42.4343 42.3353ZM8.00881 45.4179L8.70898 52.9043C9.66415 52.9043 10.4866 52.1234 10.5466 51.1446L10.9573 45.7519L20.6346 42.4264L17.409 38.5999L9.3941 42.8677C8.5383 43.3035 7.91809 44.4451 8.00881 45.4179ZM51.3993 27.4677C50.3863 26.4374 48.7423 26.4389 47.7275 27.4708C46.7127 28.5026 46.7112 30.1743 47.7245 31.2043L51.3993 27.4677ZM55.58 30.9462C56.0256 30.9462 56.3867 30.579 56.3867 30.126C56.3867 29.6733 56.0256 29.3061 55.58 29.3061C55.1349 29.3061 54.7737 29.6733 54.7737 30.126C54.7737 30.579 55.1349 30.9462 55.58 30.9462Z" fill="#E5E7EB"/>
</svg>
