<svg width="100" height="100" viewBox="0 0 100 100" fill="none" xmlns="http://www.w3.org/2000/svg">
<g clip-path="url(#clip0_19_48)">
<path d="M17.7109 36.7188H95.5781V94.2734H17.7109V36.7188Z" fill="white"/>
<path d="M1.17188 49.9297V98.7578H98.8281V1.10156H1.17188V49.9297ZM79.8672 46.0234C82.2062 46.5662 84.332 47.7895 85.9766 49.5391C86.8819 50.4816 87.669 51.531 88.3203 52.6641C88.3203 52.7891 84.1016 55.6406 81.5312 57.2344C81.4375 57.2969 81.0625 56.8906 80.6484 56.2734C80.1792 55.4638 79.5125 54.7862 78.7106 54.304C77.9087 53.8217 76.9976 53.5505 76.0625 53.5156C73.1016 53.3125 71.1953 54.8672 71.2109 57.4219C71.1865 58.0579 71.3321 58.689 71.6328 59.25C72.2812 60.6016 73.4922 61.4062 77.2891 63.0469C84.2812 66.0547 87.2734 68.0391 89.1328 70.8594C91.2109 73.9844 91.6719 79.0312 90.2656 82.7656C88.7031 86.8281 84.875 89.5859 79.4609 90.5C76.9882 90.7832 74.4897 90.757 72.0234 90.4219C68.2435 89.7988 64.7616 87.9839 62.0859 85.2422C61.1875 84.25 59.4375 81.6641 59.5469 81.4766C59.8321 81.2648 60.1324 81.0742 60.4453 80.9062L64.0625 78.9062L66.8672 77.2812L67.4531 78.1484C68.442 79.563 69.7004 80.7683 71.1562 81.6953C74.2812 83.3359 78.5469 83.1094 80.6562 81.2109C81.3645 80.5153 81.8063 79.5933 81.9048 78.6054C82.0033 77.6176 81.7522 76.6265 81.1953 75.8047C80.4141 74.7188 78.8516 73.8047 74.4844 71.8984C69.4453 69.7266 67.2734 68.3828 65.2891 66.2422C64.0503 64.8296 63.1356 63.163 62.6094 61.3594C62.2168 59.2988 62.1588 57.1884 62.4375 55.1094C63.4766 50.2422 67.125 46.8438 72.4531 45.8359C74.9206 45.5306 77.4201 45.5991 79.8672 46.0391V46.0234ZM56.9453 50.1172V54.1172H44.2656V90.2344H35.2734V54.1094H22.5625V50.2031C22.5229 48.8561 22.5542 47.5078 22.6562 46.1641C22.7188 46.0938 30.4688 46.0938 39.8438 46.0938H56.8984L56.9453 50.1172Z" fill="#007ACC"/>
</g>
<defs>
<clipPath id="clip0_19_48">
<rect width="100" height="100" fill="white"/>
</clipPath>
</defs>
</svg>
