<svg width="84" height="85" viewBox="0 0 84 85" fill="none" xmlns="http://www.w3.org/2000/svg">
<path d="M62.9707 78.6062C55.2194 83.1291 46.9177 84.8939 38.217 84.1167C29.6161 83.3483 21.9388 80.1186 15.2251 74.4808C7.38169 67.8944 2.769 59.4435 1.1003 49.597C-0.946297 37.5208 1.96007 26.3404 9.46532 16.5906C16.0432 8.04551 24.8774 2.95828 35.4429 1.05215C41.3351 -0.0108881 47.2609 0.474248 53.0822 1.85819C55.0544 2.32706 56.5028 4.96641 56.0215 6.88454C55.4237 9.26704 53.0324 10.7661 50.7256 10.2363C42.2862 8.29793 34.0716 8.94977 26.5141 13.2707C17.7268 18.2949 12.09 25.851 9.9614 35.864C7.75191 46.2573 10.5179 55.4975 17.007 63.5718C21.8133 69.5523 28.2577 73.2593 35.835 74.8111C45.8855 76.8695 54.8384 74.4446 62.8885 68.2023C69.7154 62.9085 73.5129 55.8465 75.1375 47.5131C75.4803 45.7545 75.498 43.9257 75.5835 42.1253C75.7119 39.4219 77.1128 38.0865 79.9218 38.0939C82.3894 38.1004 83.7718 39.5398 83.7978 42.1162C83.8991 52.1315 80.6699 60.9518 74.4485 68.7745C71.27 72.771 67.4216 75.91 62.9707 78.6062Z" fill="#02BC7D"/>
<path d="M47.1819 56.1524C45.6503 57.4669 44.6941 59.5547 42.3521 59.1496C41.3412 58.9747 40.1729 58.6219 39.4682 57.9429C35.2034 53.8337 31.0425 49.6161 26.867 45.4148C25.0321 43.5686 25.033 41.2277 26.8095 39.4201C28.6837 37.5132 30.9842 37.5195 32.9513 39.3858C36.011 42.2887 39.0962 45.1647 42.3371 48.2084C45.0348 45.1972 47.8001 42.1563 50.5121 39.0688C52.6753 36.6061 54.7612 34.0759 56.9035 31.5947C60.2294 27.7426 63.5621 23.8962 66.9167 20.0692C68.2244 18.5772 69.4806 17.1175 71.9112 17.7401C75.6349 18.694 76.8236 21.9441 74.3835 24.9411C70.552 29.6471 66.3644 34.0617 62.3693 38.6361C58.294 43.3022 54.2708 48.0137 50.2207 52.7018C49.2493 53.8262 48.2616 54.9367 47.1819 56.1524Z" fill="#02BC7D"/>
</svg>
