<svg width="100" height="100" viewBox="0 0 100 100" fill="none" xmlns="http://www.w3.org/2000/svg">
<g clip-path="url(#clip0_19_79)">
<path d="M97.4508 45.6078L54.3914 2.55001C51.9133 0.0703248 47.8914 0.0703248 45.4094 2.55001L36.4688 11.4922L47.8109 22.8344C50.4477 21.9445 53.4695 22.5414 55.5703 24.6422C57.682 26.7563 58.2742 29.8039 57.3625 32.4492L68.2938 43.3813C70.9383 42.4695 73.9906 43.0586 76.1016 45.1742C79.0547 48.125 79.0547 52.9086 76.1016 55.861C75.3998 56.5631 74.5665 57.12 73.6494 57.5001C72.7323 57.8801 71.7494 58.0756 70.7566 58.0756C69.7639 58.0756 68.781 57.8801 67.8639 57.5001C66.9468 57.12 66.1135 56.5631 65.4117 55.861C64.3573 54.8059 63.6386 53.4626 63.346 52C63.0534 50.5374 63.1999 49.0209 63.7672 47.6414L53.5734 37.4477L53.5719 64.2766C54.3115 64.6408 54.9867 65.1232 55.5711 65.7047C58.5227 68.6555 58.5227 73.4375 55.5711 76.3945C52.6188 79.3453 47.8336 79.3453 44.8844 76.3945C41.9328 73.4383 41.9328 68.6563 44.8844 65.7047C45.5915 64.9964 46.4326 64.4361 47.3586 64.0563V36.9789C46.4319 36.6002 45.5905 36.0394 44.8844 35.3297C42.6484 33.0953 42.1102 29.8141 43.257 27.0672L32.075 15.8852L2.55001 45.4086C1.35885 46.6001 0.689697 48.216 0.689697 49.9008C0.689697 51.5856 1.35885 53.2015 2.55001 54.393L45.6102 97.4508C48.0899 99.9305 52.1102 99.9305 54.5938 97.4508L97.4516 54.593C98.6425 53.4011 99.3114 51.7851 99.3112 50.1002C99.3111 48.4154 98.6419 46.7995 97.4508 45.6078Z" fill="#F34F29"/>
</g>
<defs>
<clipPath id="clip0_19_79">
<rect width="100" height="100" fill="white"/>
</clipPath>
</defs>
</svg>
