<svg width="98" height="88" viewBox="0 0 98 88" fill="none" xmlns="http://www.w3.org/2000/svg">
<path d="M49 52.9062C53.9188 52.9062 57.9062 48.9188 57.9062 44C57.9062 39.0812 53.9188 35.0938 49 35.0938C44.0812 35.0938 40.0938 39.0812 40.0938 44C40.0938 48.9188 44.0812 52.9062 49 52.9062Z" fill="#61DAFB"/>
<path d="M82.8281 29.3125C81.1094 28.6875 79.3125 28.0625 77.4375 27.5156C77.9062 25.6406 78.2969 23.7656 78.6094 21.9688C80.25 11.6562 78.4531 4.39062 73.4531 1.57812C71.9687 0.71875 70.3281 0.328125 68.4531 0.328125C62.9844 0.328125 56.0312 4.39062 49 11.1875C41.9687 4.39062 35.0156 0.328125 29.5469 0.328125C27.6719 0.328125 26.0312 0.71875 24.5469 1.57812C19.5469 4.46875 17.75 11.7344 19.3906 21.9688C19.7031 23.7656 20.0937 25.6406 20.5625 27.5156C18.6875 28.0625 16.8906 28.6094 15.1719 29.3125C5.40625 33.0625 0.09375 38.2188 0.09375 44C0.09375 49.7812 5.48438 54.9375 15.1719 58.6875C16.8906 59.3125 18.6875 59.9375 20.5625 60.4844C20.0937 62.3594 19.7031 64.2344 19.3906 66.0312C17.75 76.3438 19.5469 83.6094 24.5469 86.4219C26.0312 87.2812 27.6719 87.6719 29.5469 87.6719C35.0937 87.6719 42.0469 83.6094 49 76.8125C56.0312 83.6094 62.9844 87.6719 68.4531 87.6719C70.3281 87.6719 71.9687 87.2812 73.4531 86.4219C78.4531 83.5312 80.25 76.2656 78.6094 66.0312C78.2969 64.2344 77.9062 62.3594 77.4375 60.4844C79.3125 59.9375 81.1094 59.3906 82.8281 58.6875C92.5937 54.9375 97.9062 49.7812 97.9062 44C97.9062 38.2188 92.5937 33.0625 82.8281 29.3125ZM71.2656 5.48437C74.4687 7.35937 75.5625 13.1406 74.2344 21.3438C74 22.9844 73.6094 24.7031 73.1406 26.5C69.0781 25.5625 64.7812 24.9375 60.25 24.5469C57.5937 20.7969 54.8594 17.4375 52.125 14.3906C57.9062 8.6875 63.7656 4.78125 68.5312 4.78125C69.5469 4.78125 70.4844 5.01562 71.2656 5.48437ZM62.5156 51.8125C61.1094 54.3125 59.4687 56.8125 57.75 59.3125C54.8594 59.5469 51.9687 59.625 49 59.625C45.9531 59.625 43.0625 59.5469 40.25 59.3125C38.5312 56.8125 36.9687 54.3125 35.5625 51.8125C34.0781 49.2344 32.6719 46.5781 31.4219 44C32.6719 41.4219 34.0781 38.7656 35.5625 36.1875C36.9687 33.6875 38.6094 31.1875 40.3281 28.6875C43.2187 28.4531 46.1094 28.375 49.0781 28.375C52.125 28.375 55.0156 28.4531 57.8281 28.6875C59.5469 31.1875 61.1094 33.6875 62.5156 36.1875C64 38.7656 65.4062 41.4219 66.6562 44C65.3281 46.5781 64 49.1562 62.5156 51.8125ZM69 49.2344C70.1719 51.9688 71.1094 54.625 71.9687 57.2812C69.3125 57.9062 66.5 58.375 63.5312 58.7656C64.4687 57.2813 65.4844 55.7188 66.3437 54.0781C67.2812 52.4375 68.1406 50.7969 69 49.2344ZM49 70.4062C47.125 68.375 45.3281 66.1875 43.6094 63.9219C45.4062 64 47.2031 64.0781 49 64.0781C50.7969 64.0781 52.5937 64 54.3906 63.9219C52.6719 66.1875 50.875 68.375 49 70.4062ZM34.4687 58.6875C31.5 58.2969 28.6875 57.8281 26.0312 57.2031C26.8906 54.625 27.8281 51.8906 29 49.1562C29.8594 50.7188 30.7187 52.3594 31.6562 53.9219C32.5937 55.6406 33.5312 57.125 34.4687 58.6875ZM29 38.7656C27.8281 36.0312 26.8906 33.375 26.0312 30.7188C28.6875 30.0938 31.5 29.625 34.4687 29.2344C33.5312 30.7188 32.5156 32.2812 31.6562 33.9219C30.7187 35.5625 29.8594 37.2031 29 38.7656ZM49 17.5938C50.875 19.625 52.6719 21.8125 54.3906 24.0781C52.5937 24 50.7969 23.9219 49 23.9219C47.2031 23.9219 45.4062 24 43.6094 24.0781C45.3281 21.8125 47.125 19.625 49 17.5938ZM66.3437 34L63.5312 29.3125C66.5 29.7031 69.3125 30.1719 71.9687 30.7969C71.1094 33.375 70.1719 36.1094 69 38.8438C68.1406 37.2031 67.2812 35.5625 66.3437 34ZM23.7656 21.3438C22.4375 13.1406 23.5312 7.35937 26.7344 5.48437C27.5156 5.01562 28.4531 4.78125 29.4687 4.78125C34.1562 4.78125 40.0156 8.60938 45.875 14.3906C43.1406 17.3594 40.4062 20.7969 37.75 24.5469C33.2187 24.9375 28.9219 25.6406 24.8594 26.5C24.3906 24.7031 24.0781 22.9844 23.7656 21.3438ZM4.46875 44C4.46875 40.3281 8.92188 36.4219 16.7344 33.5312C18.2969 32.9062 20.0156 32.3594 21.7344 31.8906C22.9844 35.7969 24.5469 39.9375 26.4219 44.0781C24.5469 48.2188 22.9062 52.2812 21.7344 56.1875C10.9531 53.0625 4.46875 48.375 4.46875 44ZM26.7344 82.5156C23.5312 80.6406 22.4375 74.8594 23.7656 66.6562C24 65.0156 24.3906 63.2969 24.8594 61.5C28.9219 62.4375 33.2187 63.0625 37.75 63.4531C40.4062 67.2031 43.1406 70.5625 45.875 73.6094C40.0937 79.3125 34.2344 83.2188 29.4687 83.2188C28.4531 83.2188 27.5156 82.9844 26.7344 82.5156ZM74.2344 66.6562C75.5625 74.8594 74.4687 80.6406 71.2656 82.5156C70.4844 82.9844 69.5469 83.2188 68.5312 83.2188C63.8437 83.2188 57.9844 79.3906 52.125 73.6094C54.8594 70.6406 57.5937 67.2031 60.25 63.4531C64.7812 63.0625 69.0781 62.3594 73.1406 61.5C73.6094 63.2969 73.9219 65.0156 74.2344 66.6562ZM81.2656 54.4688C79.7031 55.0938 77.9844 55.6406 76.2656 56.1094C75.0156 52.2031 73.4531 48.0625 71.5781 43.9219C73.4531 39.7813 75.0937 35.7188 76.2656 31.8125C87.0469 34.9375 93.5312 39.625 93.5312 44C93.5312 47.6719 89 51.5781 81.2656 54.4688Z" fill="#61DAFB"/>
</svg>
