<svg width="100" height="100" viewBox="0 0 100 100" fill="none" xmlns="http://www.w3.org/2000/svg">
<path d="M50 98.7878C76.3925 98.7878 97.7878 77.3925 97.7878 51.0001C97.7878 24.6077 76.3925 3.21246 50 3.21246C23.6075 3.21246 2.21216 24.6077 2.21216 51.0001C2.21216 77.3925 23.6075 98.7878 50 98.7878Z" fill="#E5E7EB"/>
<path d="M50 0C22.4297 0 0 22.43 0 50.0001C0 77.57 22.4297 100 50 100C77.5703 100 100 77.5703 100 50.0001C100 22.43 77.5703 0 50 0ZM42.2869 5.08033C38.2283 8.55492 34.3428 12.8805 31.2212 17.485C29.8155 19.5589 28.5516 21.7002 27.4293 23.8965H12.6622C19.5064 14.1361 30.0744 7.17098 42.2869 5.08033ZM9.91883 28.3208H25.3926C22.8105 34.6013 21.3493 41.2497 21.088 48.021H4.47008C4.77507 40.9155 6.71205 34.2259 9.91883 28.3208ZM4.49043 52.4453H21.0862C21.3408 59.3228 22.7875 65.9104 25.4053 72.1455H10.179C6.88991 66.2546 4.86857 59.5647 4.49043 52.4453ZM12.9929 76.5695H27.4921C28.5979 78.6782 29.8423 80.7432 31.2295 82.7601C34.91 88.1115 38.8659 92.0919 42.2072 94.9061C30.2237 92.8328 19.8294 86.0645 12.9929 76.5695ZM47.7878 93.6744C42.8461 90.0555 37.0287 84.2835 32.5716 76.5695H47.7878V93.6744ZM47.7878 72.1452H30.2756C27.6405 66.4339 25.8206 59.8455 25.515 52.445H47.7875L47.7878 72.1452ZM47.7878 48.021H25.515C25.7905 41.1426 27.3552 34.5515 30.1854 28.3208H47.7878V48.021ZM47.7878 23.8965H32.4424C33.1963 22.5686 34.0086 21.2584 34.8834 19.9677C39.4382 13.2486 44.4309 8.8487 47.7878 6.35543V23.8965ZM95.5299 48.021H78.9117C78.6504 41.2497 77.1892 34.6013 74.6071 28.3208H90.0809C93.2877 34.2259 95.2249 40.9155 95.5299 48.021ZM87.3378 23.8965H72.571C71.4487 21.7002 70.1845 19.5589 68.7791 17.485C65.6575 12.8802 61.7709 8.5558 57.712 5.08004C69.9247 7.17069 80.493 14.1358 87.3378 23.8965ZM52.2122 6.35513C55.5691 8.8484 60.5618 13.2483 65.1166 19.9674C65.9914 21.2581 66.8037 22.5683 67.5576 23.8962H52.2122V6.35513ZM52.2122 28.3208H69.8147C72.6448 34.5515 74.2095 41.1426 74.485 48.021H52.2122V28.3208ZM52.2122 52.4453H74.4847C74.1794 59.8458 72.3593 66.4342 69.7241 72.1455H52.2119L52.2122 52.4453ZM52.2122 76.5695H67.4284C62.9713 84.2832 57.1539 90.0555 52.2122 93.6744V76.5695ZM57.7934 94.9061C61.1343 92.0922 65.09 88.1109 68.7702 82.7604C70.1574 80.7435 71.4018 78.6785 72.5076 76.5698H87.0068C80.1706 86.0642 69.7766 92.8326 57.7934 94.9061ZM89.821 72.1452H74.5944C77.2122 65.9101 78.659 59.3228 78.9135 52.445H95.5093C95.1311 59.5647 93.1101 66.2546 89.821 72.1452Z" fill="#1F2937"/>
</svg>
