<svg width="80" height="80" viewBox="0 0 80 80" fill="none" xmlns="http://www.w3.org/2000/svg">
<path d="M7.68929 0.429077C6.33974 0.868176 1.97725 4.97688 0.847391 6.8901C-0.282464 8.83468 -0.282464 11.5947 0.847391 13.5393C1.31816 14.292 7.34406 20.5649 14.2487 27.465L26.8341 40.0107L13.9976 52.87C6.93605 59.9269 0.910161 66.2311 0.596312 66.827C0.251079 67.5171 0.0313849 68.6462 0.0313849 69.838C0.0313849 72.3158 0.878776 73.7899 4.1428 76.8949C6.71636 79.3414 8.03452 80 10.3884 80C13.0561 79.9686 13.8093 79.3414 27.2421 65.9488L40.0157 53.1836L52.8207 65.9488C66.222 79.3414 66.9753 79.9686 69.643 80C71.9969 80 73.315 79.3414 75.8886 76.8949C79.1526 73.7899 80 72.3158 80 69.838C80 68.6462 79.7803 67.5171 79.4351 66.827C79.1212 66.2311 73.0953 59.9269 66.0337 52.87L53.1973 40.0107L65.7827 27.465C72.6873 20.5649 78.7132 14.292 79.184 13.5393C79.8117 12.4416 80 11.7515 80 10.2147C80 7.70556 79.1526 6.26281 75.8886 3.1264C72.7187 0.115435 70.7729 -0.543213 67.5088 0.397713C66.4104 0.711354 64.2448 2.71866 53.1346 13.7902L40.0157 26.8064L26.9282 13.7902C15.7866 2.71866 13.621 0.711354 12.5226 0.397713C10.9533 -0.0413858 9.16438 -0.0413856 7.68929 0.429077Z" fill="#EF4444"/>
</svg>
