<svg width="72" height="72" viewBox="0 0 72 72" fill="none" xmlns="http://www.w3.org/2000/svg">
<path d="M20 0C8.972 0 0 8.972 0 20V52C0 63.028 8.972 72 20 72H52C63.028 72 72 63.028 72 52V20C72 8.972 63.028 0 52 0H20ZM20 8H52C58.616 8 64 13.384 64 20V52C64 58.616 58.616 64 52 64H20C13.384 64 8 58.616 8 52V20C8 13.384 13.384 8 20 8ZM56 12C54.9391 12 53.9217 12.4214 53.1716 13.1716C52.4214 13.9217 52 14.9391 52 16C52 17.0609 52.4214 18.0783 53.1716 18.8284C53.9217 19.5786 54.9391 20 56 20C57.0609 20 58.0783 19.5786 58.8284 18.8284C59.5786 18.0783 60 17.0609 60 16C60 14.9391 59.5786 13.9217 58.8284 13.1716C58.0783 12.4214 57.0609 12 56 12ZM36 16C24.972 16 16 24.972 16 36C16 47.028 24.972 56 36 56C47.028 56 56 47.028 56 36C56 24.972 47.028 16 36 16ZM36 24C42.616 24 48 29.384 48 36C48 42.616 42.616 48 36 48C29.384 48 24 42.616 24 36C24 29.384 29.384 24 36 24Z" fill="#374151"/>
</svg>
