<svg width="80" height="65" viewBox="0 0 80 65" fill="none" xmlns="http://www.w3.org/2000/svg">
<path d="M80 0.996094C76.88 2.84809 70.62 5.37209 66.94 6.10009C66.832 6.12809 66.744 6.16409 66.64 6.19209C63.388 2.98409 58.932 0.996094 54 0.996094C44.06 0.996094 36 9.05609 36 18.9961C36 19.5201 35.956 20.4841 36 20.9961C22.588 20.9961 12.38 13.9721 5.06 4.99609C4.264 6.99609 3.916 10.1561 3.916 13.1241C3.916 18.7281 8.296 24.2321 15.116 27.6441C13.86 27.9681 12.476 28.2001 11.036 28.2001C8.712 28.2001 6.252 27.5881 4 25.7321C4 25.8001 4 25.8641 4 25.9361C4 33.7681 12.312 39.1001 19.704 40.5841C18.204 41.4681 15.18 41.5561 13.704 41.5561C12.664 41.5561 8.984 41.0801 8 40.8961C10.056 47.3161 17.472 50.9241 24.54 51.0521C19.012 55.3881 15.176 56.9961 3.856 56.9961H0C7.152 61.5801 16.26 65.0001 25.388 65.0001C55.108 65.0001 72 42.3481 72 20.9961C72 20.6521 71.992 19.9321 71.98 19.2081C71.98 19.1361 72 19.0681 72 18.9961C72 18.8881 71.968 18.7841 71.968 18.6761C71.956 18.1321 71.944 17.6241 71.932 17.3601C75.092 15.0801 77.832 12.2361 80 8.99609C77.1 10.2841 73.988 11.1481 70.72 11.5401C74.056 9.54009 78.796 4.77209 80 0.996094ZM64 20.9961C64 37.3161 52.172 54.5921 30.136 56.7681C33.12 54.6521 36 51.6481 36 51.6481C36 51.6481 24 41.0001 23.1 27.0881C27.24 28.3521 31.552 28.9961 36 28.9961H44V18.9961C44.008 13.4761 48.48 9.00009 54 9.00009C59.524 9.00009 64 13.4761 64 19.0001C64 19.0001 64 20.6801 64 20.9961Z" fill="#374151"/>
</svg>
